<?xml version="1.0" encoding="UTF-8" standalone="no"?>
<!-- Created with Inkscape (http://www.inkscape.org/) -->

<svg
   xmlns:dc="http://purl.org/dc/elements/1.1/"
   xmlns:cc="http://creativecommons.org/ns#"
   xmlns:rdf="http://www.w3.org/1999/02/22-rdf-syntax-ns#"
   xmlns:svg="http://www.w3.org/2000/svg"
   xmlns="http://www.w3.org/2000/svg"
   xmlns:sodipodi="http://sodipodi.sourceforge.net/DTD/sodipodi-0.dtd"
   xmlns:inkscape="http://www.inkscape.org/namespaces/inkscape"
   width="220mm"
   height="220mm"
   viewBox="0 0 220 220"
   version="1.1"
   id="svg108"
   inkscape:version="0.92.4 (f8dce91, 2019-08-02)"
   sodipodi:docname="best-series-200.svg">
  <defs
     id="defs102" />
  <sodipodi:namedview
     id="base"
     pagecolor="#ffffff"
     bordercolor="#666666"
     borderopacity="1.0"
     inkscape:pageopacity="0.0"
     inkscape:pageshadow="2"
     inkscape:zoom="0.35"
     inkscape:cx="21.789009"
     inkscape:cy="260.36063"
     inkscape:document-units="mm"
     inkscape:current-layer="layer1"
     showgrid="false"
     inkscape:window-width="1301"
     inkscape:window-height="744"
     inkscape:window-x="65"
     inkscape:window-y="24"
     inkscape:window-maximized="1"
     width="250mm" />
  <metadata
     id="metadata105">
    <rdf:RDF>
      <cc:Work
         rdf:about="">
        <dc:format>image/svg+xml</dc:format>
        <dc:type
           rdf:resource="http://purl.org/dc/dcmitype/StillImage" />
        <dc:title></dc:title>
      </cc:Work>
    </rdf:RDF>
  </metadata>
  <g
     inkscape:label="Layer 1"
     inkscape:groupmode="layer"
     id="layer1"
     transform="translate(0,-77)">
    <circle
       style="fill:#3f51b5;stroke-width:0.27850875"
       id="path235"
       cx="110"
       cy="187"
       r="100" />
    <g
       id="g352"
       transform="matrix(0.27850877,0,0,0.27850877,48.118364,120.59172)">
      <g
         id="g6">
        <g
           id="g4">
          <path
             id="path2"
             d="M 420.135,110.203 H 280.091 l 49.728,-81.594 c 4.312,-7.074 2.072,-16.304 -5.002,-20.615 -7.073,-4.313 -16.304,-2.072 -20.615,5.002 l -59.243,97.207 H 208.043 L 148.8,12.996 c -4.311,-7.072 -13.541,-9.312 -20.615,-5.002 -7.074,4.312 -9.314,13.541 -5.002,20.615 l 49.728,81.594 H 32.865 C 14.743,110.203 0,124.946 0,143.067 v 271.271 c 0,18.121 14.743,32.864 32.865,32.864 h 387.271 c 18.122,0 32.865,-14.743 32.865,-32.864 V 143.067 C 453,124.946 438.257,110.203 420.135,110.203 Z M 317.677,374.912 c 0,9.866 -7.998,17.865 -17.865,17.865 H 71.188 C 61.322,392.776 53.324,384.778 53.324,374.912 V 182.494 c 0,-9.866 7.998,-17.865 17.865,-17.865 h 228.623 c 9.866,0 17.865,7.999 17.865,17.865 z m 66.115,-5.709 c -17.093,0 -31,-13.907 -31,-31 0,-17.094 13.907,-31 31,-31 17.093,0 31,13.906 31,31 0,17.094 -13.907,31 -31,31 z m 0,-119 c -17.093,0 -31,-13.906 -31,-31 0,-17.094 13.907,-31 31,-31 17.093,0 31,13.906 31,31 0,17.094 -13.907,31 -31,31 z"
             inkscape:connector-curvature="0" />
        </g>
      </g>
      <g
         id="g8" />
      <g
         id="g10" />
      <g
         id="g12" />
      <g
         id="g14" />
      <g
         id="g16" />
      <g
         id="g18" />
      <g
         id="g20" />
      <g
         id="g22" />
      <g
         id="g24" />
      <g
         id="g26" />
      <g
         id="g28" />
      <g
         id="g30" />
      <g
         id="g32" />
      <g
         id="g34" />
      <g
         id="g36" />
      <path
         inkscape:transform-center-y="-3.0143232"
         inkscape:transform-center-x="0.5287549"
         d="m 149.72067,259.13191 -22.1784,-10.37614 -21.1209,12.38765 3.01479,-24.29932 -18.308065,-16.25918 24.041655,-4.64166 9.80588,-22.43637 11.84377,21.43062 24.36844,2.39273 -16.7218,17.88651 z"
         inkscape:randomized="0"
         inkscape:rounded="0"
         inkscape:flatsided="false"
         sodipodi:arg2="1.5243739"
         sodipodi:arg1="0.89605538"
         sodipodi:r2="18.436155"
         sodipodi:r1="36.872311"
         sodipodi:cy="230.33948"
         sodipodi:cx="126.68672"
         sodipodi:sides="5"
         id="path3750"
         sodipodi:type="star" />
      <path
         inkscape:transform-center-y="-3.0143232"
         inkscape:transform-center-x="0.5287549"
         d="m 257.74119,256.38777 -22.1784,-10.37614 -21.1209,12.38765 3.0148,-24.29932 -18.30807,-16.25918 24.04165,-4.64166 9.80589,-22.43637 11.84376,21.43062 24.36844,2.39273 -16.7218,17.88651 z"
         inkscape:randomized="0"
         inkscape:rounded="0"
         inkscape:flatsided="false"
         sodipodi:arg2="1.5243739"
         sodipodi:arg1="0.89605538"
         sodipodi:r2="18.436155"
         sodipodi:r1="36.872311"
         sodipodi:cy="227.59534"
         sodipodi:cx="234.70724"
         sodipodi:sides="5"
         id="path3750-3"
         sodipodi:type="star" />
      <path
         inkscape:connector-curvature="0"
         id="path3823"
         d="m 17.461091,441.71003 c -9.3112798,-5.67654 -13.1344626,-11.0074 -15.4415286,-21.5309 -2.76725803,-12.62265 -2.76725803,-270.31403 0,-282.93668 2.307066,-10.52351 6.1302488,-15.85436 15.4415286,-21.5309 6.313772,-3.84913 9.02425,-3.98278 80.913068,-3.98972 46.039591,-0.004 74.380461,-0.70664 74.380461,-1.8429 0,-1.00965 -11.2239,-20.228606 -24.942,-42.708785 -27.31323,-44.758837 -29.08335,-49.831561 -19.90729,-57.04945 6.52394,-5.1317277 11.34577,-5.0332624 16.67701,0.340557 2.35655,2.375376 17.53891,26.129137 33.73857,52.786134 l 29.45393,48.467274 h 18.72566 18.72566 L 274.6801,63.247386 c 16.19966,-26.656997 31.38201,-50.410758 33.73857,-52.786134 5.33125,-5.3738194 10.15308,-5.4722847 16.677,-0.340557 9.17606,7.217889 7.40596,12.290613 -19.90728,57.04945 -13.7181,22.480179 -24.942,41.699135 -24.942,42.708785 0,1.13626 28.34087,1.83846 74.38046,1.8429 71.88882,0.007 74.5993,0.14058 80.91306,3.98972 9.31128,5.67654 13.13448,11.00739 15.44154,21.5309 2.73499,12.47551 2.68165,271.58236 -0.0584,283.51103 -2.09473,9.11941 -8.87673,17.73975 -17.50156,22.24557 -4.36622,2.28102 -37.04527,2.70674 -207.30555,2.70069 -201.165779,-0.008 -202.153168,-0.0261 -208.654861,-3.98971 z m 290.671619,-50.1227 c 10.54091,-4.80275 10.50359,-4.40244 10.50359,-112.69091 0,-73.30191 -0.60919,-101.1558 -2.2932,-104.85179 -4.86312,-10.67341 -2.72987,-10.50359 -131.9459,-10.50359 H 65.323423 l -6.268643,5.60103 -6.268646,5.60104 v 103.96768 103.96768 l 6.268646,5.60104 6.268643,5.60103 H 184.21156 c 88.0865,0 120.1921,-0.59413 123.92115,-2.29321 z m 85.97087,-23.52173 c 13.78914,-4.91782 20.95047,-15.12136 20.95047,-29.85044 0,-28.52517 -33.2876,-42.39959 -53.42104,-22.26615 -16.43217,16.43217 -10.16302,44.28152 11.70892,52.01448 9.50782,3.36155 11.59372,3.3718 20.76165,0.10211 z m 0,-119.00874 c 13.78914,-4.91782 20.95047,-15.12136 20.95047,-29.85044 0,-28.52516 -33.2876,-42.39959 -53.42104,-22.26615 -16.43217,16.43217 -10.16302,44.28152 11.70892,52.01448 9.50782,3.36155 11.59372,3.3718 20.76165,0.10211 z"
         style="fill:#ffffff;stroke-width:1.91949582" />
      <path
         inkscape:connector-curvature="0"
         id="path3825"
         d="m 217.12198,244.65356 1.4959,-11.02329 -9.00793,-7.92656 -9.00793,-7.92657 10.11987,-1.39184 c 11.82366,-1.62616 14.26255,-3.63799 18.7938,-15.5029 l 3.35945,-8.7966 5.73133,10.68107 c 4.80346,8.95186 6.57927,10.68106 10.96896,10.68106 2.8807,0 7.99868,0.55221 11.3733,1.22713 l 6.13566,1.22714 -7.86395,8.01278 -7.86396,8.01278 2.29607,9.94712 c 1.26284,5.47092 1.8211,10.42209 1.24058,11.00261 -0.58051,0.58052 -5.12353,-0.92093 -10.0956,-3.33654 l -9.04011,-4.39202 -9.4282,5.26395 c -5.18551,2.89518 -9.71506,5.26396 -10.06566,5.26396 -0.35061,0 0.0357,-4.96048 0.85842,-11.02328 z"
         style="fill:#ffffff;stroke-width:1.91949582" />
      <path
         inkscape:connector-curvature="0"
         id="path3827"
         d="m 108.7832,247.23296 1.12873,-12.08732 -7.9887,-6.41989 c -8.854457,-7.11564 -8.293756,-8.22541 5.28747,-10.46525 7.86158,-1.29654 8.6461,-2.01039 13.24186,-12.04884 l 4.88518,-10.67064 4.58901,9.02968 c 5.06374,9.96379 9.87717,12.71622 22.23803,12.71622 h 7.95268 l -8.42063,8.58 -8.42064,8.58 2.26249,9.80165 c 1.24437,5.39091 2.2625,10.59014 2.2625,11.55385 0,0.96371 -4.56341,-0.4859 -10.1409,-3.22135 l -10.14089,-4.97356 -9.93246,5.85639 -9.93246,5.85639 z"
         style="fill:#ffffff;stroke-width:1.91949582" />
    </g>
  </g>
</svg>
